<?xml version="1.0" encoding="utf-8"?>
<!-- Generator: Adobe Illustrator 22.0.1, SVG Export Plug-In . SVG Version: 6.00 Build 0)  -->
<svg version="1.1" id="Layer_1" xmlns="http://www.w3.org/2000/svg" xmlns:xlink="http://www.w3.org/1999/xlink" x="0px" y="0px"
	 viewBox="0 0 290.4 290.4" style="enable-background:new 0 0 290.4 290.4;" xml:space="preserve">
<style type="text/css">
	.st0{fill:#3E4449;}
	.st1{fill:#DE2021;}
</style>
<g>
	<path class="st0" d="M290.4,76.1L285,48.9h-27.3v9.4h13.7l-16.9,21.2c-0.9-1.9-1.8-3.7-2.8-5.6l-8.2,4.6c1.6,2.9,3.1,6,4.5,9.1
		l-5,6.3l-28.2-23.5L180.5,116c-2.2-0.9-4.6-1.4-7.1-1.4c-10.3,0-18.8,8.4-18.8,18.8v9.4h-18.8v-9.4c0-10.3-8.4-18.8-18.8-18.8
		c-2.5,0-4.9,0.5-7.1,1.4L75.7,70.3L47.5,93.8l-5-6.3c1.4-3.2,3-6.4,4.7-9.4L39,73.6c-1.1,1.9-2,3.9-3,5.9L19,58.3h13.7v-9.4H5.4
		L0,76.1L9.2,78l2.7-13.6l19.8,24.7c-0.3,0.8-0.7,1.7-1,2.5l4.3,1.6l11.2,14l28-23.3l28.4,37.9c-2.6,3.2-4.2,7.2-4.2,11.6
		c0,10.3,8.4,18.8,18.8,18.8h9.4V213h-18.8c-7.8,0-14.1,6.3-14.1,14.1c0,3,1,5.8,2.6,8.1l-3.8,8c1.9,0.9,3.9,1.7,5.9,2.6
		c0,0,0,0.1,0,0.1c0,5,2.6,9.4,6.6,11.9c-1.2,2-1.9,4.4-1.9,6.9c0,7.8,6.3,14.1,14.1,14.1h56.3c7.8,0,14.1-6.3,14.1-14.1
		c0-2.5-0.7-4.8-1.9-6.9c3.9-2.5,6.6-6.9,6.6-11.9c0,0,0-0.1,0-0.1c2-0.8,4-1.6,5.9-2.6l-3.8-8c1.6-2.3,2.6-5.1,2.6-8.1
		c0-7.8-6.3-14.1-14.1-14.1H164v-60.9h9.4c10.3,0,18.8-8.4,18.8-18.8c0-4.4-1.6-8.4-4.2-11.6l28.4-37.9l28,23.3l10.7-13.4l4.9-1.7
		c-0.3-1-0.8-1.9-1.2-2.9l19.8-24.7l2.7,13.6L290.4,76.1z M117.1,142.7c-5.2,0-9.4-4.2-9.4-9.4c0-1.3,0.3-2.6,0.8-3.7l4.9,6.5
		l7.5-5.6L116,124c0.4,0,0.7-0.1,1.1-0.1c5.2,0,9.4,4.2,9.4,9.4v9.4L117.1,142.7L117.1,142.7z M182.7,245.8c0,2.6-2.1,4.7-4.7,4.7
		h-4.7h-56.3h-4.7c-2.6,0-4.7-2.1-4.7-4.7c0-2.6,2.1-4.7,4.7-4.7H178C180.6,241.1,182.7,243.2,182.7,245.8z M173.3,269.2h-56.3
		c-2.6,0-4.7-2.1-4.7-4.7s2.1-4.7,4.7-4.7h56.3c2.6,0,4.7,2.1,4.7,4.7S175.9,269.2,173.3,269.2z M187.4,227.1c0,2.6-2.1,4.7-4.7,4.7
		H178h-65.6h-4.7c-2.6,0-4.7-2.1-4.7-4.7c0-2.6,2.1-4.7,4.7-4.7h75C185.3,222.4,187.4,224.5,187.4,227.1z M135.8,213v-60.9h18.8V213
		H135.8z M182.7,133.3c0,5.2-4.2,9.4-9.4,9.4H164v-9.4c0-5.2,4.2-9.4,9.4-9.4c0.4,0,0.7,0.1,1.1,0.1l-4.8,6.4l7.5,5.6l4.9-6.5
		C182.4,130.8,182.7,132,182.7,133.3z"/>
	<path class="st0" d="M100.8,29.9l-3.7-8.6c-6.1,2.6-12,5.8-17.6,9.3l5.1,7.9C89.7,35.3,95.1,32.4,100.8,29.9z"/>
	<path class="st0" d="M136.2,21.2l-0.7-9.3c-6.6,0.5-13.2,1.6-19.6,3.2l2.3,9.1C124,22.6,130.1,21.6,136.2,21.2z"/>
	<path class="st0" d="M70,49.7l-6.3-7c-4.9,4.4-9.5,9.3-13.6,14.4l7.3,5.9C61.2,58.2,65.5,53.7,70,49.7z"/>
	<path class="st0" d="M33.8,149.1l-9.3,1.3c0.9,6.6,2.4,13.1,4.4,19.4l8.9-2.8C36,161.1,34.7,155.1,33.8,149.1z"/>
	<path class="st0" d="M211.3,30.9c-5.6-3.6-11.5-6.8-17.5-9.4l-3.7,8.6c5.6,2.4,11,5.3,16.2,8.7L211.3,30.9z"/>
	<path class="st0" d="M174.9,15.1c-6.4-1.6-13-2.7-19.6-3.2l-0.8,9.3c6.1,0.5,12.2,1.5,18.1,3L174.9,15.1z"/>
	<path class="st0" d="M233.3,63.3l7.3-5.8c-4.1-5.2-8.7-10-13.6-14.5l-6.3,6.9C225.2,54,229.5,58.5,233.3,63.3z"/>
	<path class="st0" d="M252.5,167.3l8.9,2.8c2-6.3,3.5-12.8,4.4-19.4l-9.3-1.3C255.7,155.5,254.3,161.5,252.5,167.3z"/>
	<path class="st0" d="M255.9,112.9c1.1,6,1.7,12.1,1.8,18.3l9.4-0.2c-0.1-6.6-0.8-13.3-2-19.8L255.9,112.9z"/>
	<path class="st0" d="M235.9,199.9l7.6,5.6c3.9-5.3,7.4-11,10.4-16.9l-8.4-4.3C242.8,189.7,239.5,194.9,235.9,199.9z"/>
	<path class="st0" d="M209.8,225.4l5.4,7.7c5.4-3.8,10.6-8.1,15.3-12.7l-6.6-6.7C219.5,218,214.8,221.9,209.8,225.4z"/>
	<path class="st0" d="M36.4,188.2c3,5.9,6.5,11.6,10.4,16.9l7.6-5.5c-3.6-4.9-6.8-10.2-9.6-15.6L36.4,188.2z"/>
	<path class="st0" d="M34.6,112.5l-9.2-1.7c-1.2,6.5-1.9,13.1-2,19.8l9.4,0.2C32.9,124.6,33.5,118.5,34.6,112.5z"/>
	<path class="st0" d="M59.7,220.1c4.7,4.6,9.8,8.9,15.2,12.7l5.4-7.7c-5-3.5-9.7-7.5-14.1-11.8L59.7,220.1z"/>
	<path class="st1" d="M178,222.4h-70.3v-4.7c0-13.9-4.9-27.5-14.3-39.4c-10.9-14-15.6-31.4-13.3-49.2c3.9-29.3,28-53,57.4-56.3
		c18.7-2.1,37.4,3.8,51.3,16.2c13.9,12.4,21.9,30.3,21.9,49c0,15-4.9,29.1-14.3,40.8c-8.9,11.2-13.9,24.9-13.9,38.6v4.7L178,222.4z"
		/>
</g>
</svg>
