<?xml version="1.0" encoding="utf-8"?>
<!-- Generator: Adobe Illustrator 22.0.1, SVG Export Plug-In . SVG Version: 6.00 Build 0)  -->
<svg version="1.1" id="Layer_1" xmlns="http://www.w3.org/2000/svg" xmlns:xlink="http://www.w3.org/1999/xlink" x="0px" y="0px"
	 viewBox="0 0 290.6 290.6" style="enable-background:new 0 0 290.6 290.6;" xml:space="preserve">
<style type="text/css">
	.st0{fill:#3E4449;}
	.st1{fill:#333333;}
	.st2{fill:#DE2021;}
</style>
<g>
	<g>
		<path class="st0" d="M248.4,61L248.4,61l-6.3-0.7c-2-24.6-7.4-60.3-22-60.3c-1.5,0-2.8,0.4-4.2,1.2l-35.3,11.8
			c-11.6,3.9-23.7,5.8-35.9,5.8H98.4c-41.4,0-75,33.6-75,75c0,33.7,22.3,62.2,52.9,71.7l-26.5,22.1H4.7v9.4h48.6l27.5-22.9l29,8.3
			l9.9,12.3c1.3,1.6,1.9,3.7,1.6,5.7c-0.3,2.1-1.3,3.9-3,5.2c-3,2.3-7.3,2-10-0.7l-9.5-9.5l-26.7,21.4l5.9,7.3l11.1-8.9v38.1H57.4
			l-9.4-4.7H4.7v9.4h41.1l9.4,4.7h33.9v4.7c0,12.9,10.5,23.4,23.4,23.4s23.4-10.5,23.4-23.4v-4.7c7.8,0,14.1-6.3,14.1-14.1
			c0-3.6-1.4-6.9-3.7-9.4c2.3-2.5,3.7-5.8,3.7-9.4s-1.4-6.9-3.7-9.4c2.3-2.5,3.7-5.8,3.7-9.4s-1.4-6.9-3.7-9.4
			c2.3-2.5,3.7-5.8,3.7-9.4c0-7.8-6.3-14.1-14.1-14.1v-9.4h8.9c12.2,0,24.3,2,35.9,5.8l35.3,11.8c1.3,0.7,2.7,1.2,4.2,1.2
			c14.5,0,19.8-35.7,21.8-60.3l6.3-0.7v0c9.4-0.5,13.6-16.7,13.6-32.8S257.8,61.5,248.4,61z M207.2,121.3
			c-0.6-8.4-0.9-17.5-0.9-27.5s0.3-19.2,0.9-27.5l31.4,3.1c-2.8,6.3-4.2,15.4-4.2,24.4s1.3,18.1,4.2,24.4L207.2,121.3z M232.9,59.4
			L208,56.9c2.7-27.1,7.9-43.5,11.3-46.9l1.2-0.4C223.5,11.5,229.9,25.7,232.9,59.4z M123.9,213c2.4-1.8,4.1-4.1,5.3-6.7h6.8
			c2.6,0,4.7,2.1,4.7,4.7s-2.1,4.7-4.7,4.7h-17.4C120.4,215.1,122.2,214.2,123.9,213z M140.6,229.7c0,2.6-2.1,4.7-4.7,4.7h-18.8
			c-2.6,0-4.7-2.1-4.7-4.7s2.1-4.7,4.7-4.7h18.8C138.5,225,140.6,227.1,140.6,229.7z M126.6,267.2c0,7.8-6.3,14.1-14.1,14.1
			s-14.1-6.3-14.1-14.1v-59l3.2,3.2c0.5,0.5,1.1,1,1.7,1.4c0.4,2.9,1.6,5.5,3.5,7.5c-2.3,2.5-3.7,5.8-3.7,9.4s1.4,6.9,3.7,9.4
			c-2.3,2.5-3.7,5.8-3.7,9.4c0,7.8,6.3,14.1,14.1,14.1h9.4L126.6,267.2L126.6,267.2z M135.9,253.1h-18.8c-2.6,0-4.7-2.1-4.7-4.7
			s2.1-4.7,4.7-4.7h18.8c2.6,0,4.7,2.1,4.7,4.7S138.5,253.1,135.9,253.1z M140.6,192.2c0,2.6-2.1,4.7-4.7,4.7h-5.5
			c-0.4-3-1.6-5.8-3.5-8.2l-1-1.2h9.9C138.5,187.5,140.6,189.6,140.6,192.2z M126.6,178.1h-8.1l-3.3-4.1l-18.8-5.4
			c0.7,0,1.4,0.1,2,0.1h28.1V178.1z M144.9,159.4H98.4c-36.2,0-65.6-29.4-65.6-65.6s29.4-65.6,65.6-65.6h46.4
			c13.2,0,26.3-2.1,38.9-6.3l23.2-7.7c-7.7,19.6-10.1,55.5-10.1,79.7s2.4,60.1,10.1,79.7l-23.2-7.7
			C171.2,161.5,158.1,159.4,144.9,159.4z M220.7,178l-0.9-0.3c-3.7-2.9-9.1-19.3-11.8-47.1l24.9-2.5
			C229.9,162.2,223.4,176.4,220.7,178z M248.4,116.8c-1.7-2.2-4.7-10.1-4.7-23s3-20.8,4.7-23c1.7,2.2,4.7,10.1,4.7,23
			S250.2,114.6,248.4,116.8z"/>
		<rect x="271.9" y="89.1" class="st1" width="14.1" height="9.4"/>
		
			<rect x="266.8" y="35.1" transform="matrix(0.9486 -0.3164 0.3164 0.9486 1.4838 88.8089)" class="st1" width="14.8" height="9.4"/>
		
			<rect x="269.5" y="140.2" transform="matrix(0.3162 -0.9487 0.9487 0.3162 47.4354 361.1055)" class="st1" width="9.4" height="14.8"/>
		<rect x="126.6" y="18.8" class="st2" width="18.8" height="150"/>
	</g>
</g>
</svg>
