<?xml version="1.0" encoding="utf-8"?>
<!-- Generator: Adobe Illustrator 22.0.1, SVG Export Plug-In . SVG Version: 6.00 Build 0)  -->
<svg version="1.1" id="Layer_1" xmlns="http://www.w3.org/2000/svg" xmlns:xlink="http://www.w3.org/1999/xlink" x="0px" y="0px"
	 viewBox="0 0 290.6 290.6" style="enable-background:new 0 0 290.6 290.6;" xml:space="preserve">
<style type="text/css">
	.st0{fill:#3E4449;}
	.st1{fill:#DE2021;}
</style>
<g>
	<g>
		<rect x="42.2" y="37.5" class="st0" width="131.3" height="9.4"/>
		<rect x="42.2" y="60.9" class="st0" width="131.3" height="9.4"/>
		<rect x="42.2" y="84.4" class="st0" width="65.6" height="9.4"/>
		<path class="st0" d="M201.6,210.9v-70.3h-4.7c-9.6,0-19.2,1.9-28.1,5.5v-17.7c27.8-8.2,46.9-33.6,46.9-62.8
			C215.6,29.4,186.2,0,150,0H65.6C29.4,0,0,29.4,0,65.6s29.4,65.6,65.6,65.6h57.4l25.2,27.3c-16.6,14.2-26.4,35.1-26.4,57
			c0,41.4,33.6,75,75,75s75-33.6,75-75v-4.7L201.6,210.9L201.6,210.9L201.6,210.9z M65.6,121.9c-31,0-56.3-25.2-56.3-56.3
			S34.6,9.4,65.6,9.4H150c31,0,56.3,25.2,56.3,56.3c0,26.2-17.8,48.7-43.3,54.7l-3.6,0.9v35.6l-32.2-34.9
			C127.2,121.9,65.6,121.9,65.6,121.9z M196.9,281.3c-36.2,0-65.6-29.4-65.6-65.6c0-19.6,8.6-37.6,23.5-50.1l14,15.2v-24.3
			c7.4-3.5,15.3-5.7,23.4-6.3v70.1h70.1C259.9,254.3,231.5,281.3,196.9,281.3z"/>
		<path class="st1" d="M290.6,201.6h-79.7v-79.7h4.7c41.4,0,75,33.6,75,75V201.6z"/>
	</g>
</g>
</svg>
