<?xml version="1.0" encoding="utf-8"?>
<!-- Generator: Adobe Illustrator 22.0.1, SVG Export Plug-In . SVG Version: 6.00 Build 0)  -->
<svg version="1.1" id="Layer_1" xmlns="http://www.w3.org/2000/svg" xmlns:xlink="http://www.w3.org/1999/xlink" x="0px" y="0px"
	 viewBox="0 0 290.6 290.6" style="enable-background:new 0 0 290.6 290.6;" xml:space="preserve">
<style type="text/css">
	.st0{fill:#3E4449;}
	.st1{fill:#DE2021;}
</style>
<g>
	<g>
		<path class="st0" d="M234.4,253.1v-75H225v75h-51.6v14.1c0,7.8-6.3,14.1-14.1,14.1s-14.1-6.3-14.1-14.1V126.6
			c0-5.3-1.8-10.1-4.8-14.1h70.4c7.8,0,14.1,6.3,14.1,14.1v32.8h9.4v-32.8c0-12.9-10.5-23.4-23.4-23.4h-63.7
			c-5.5-8.7-12.5-16.3-20.8-22.3c2.9-2.6,4.8-6.3,4.8-10.5c0-7-5.2-12.8-12-13.9c7.7-9.2,12-20.7,12-33v-9.4
			c0-7.8-6.3-14.1-14.1-14.1s-14.1,6.3-14.1,14.1c0,2.6-2.1,4.7-4.7,4.7s-4.7-2.1-4.7-4.7C93.8,6.3,87.4,0,79.7,0
			S65.6,6.3,65.6,14.1c0,2.6-2.1,4.7-4.7,4.7s-4.7-2.1-4.7-4.7C56.3,6.3,49.9,0,42.2,0S28.1,6.3,28.1,14.1v9.4
			c0,12.3,4.3,23.9,12,33c-6.8,1-12,6.8-12,13.9c0,4.2,1.9,7.9,4.8,10.5C12.4,95.7,0,119.6,0,145.3c0,36.9,25.4,68.8,60.9,77.3v16.4
			c0,12.9,10.5,23.4,23.4,23.4h51.6v4.7c0,12.9,10.5,23.4,23.4,23.4h107.8c12.9,0,23.4-10.5,23.4-23.4v-14.1L234.4,253.1
			L234.4,253.1z M37.5,14.1c0-2.6,2.1-4.7,4.7-4.7s4.7,2.1,4.7,4.7c0,7.8,6.3,14.1,14.1,14.1S75,21.8,75,14.1c0-2.6,2.1-4.7,4.7-4.7
			s4.7,2.1,4.7,4.7c0,7.8,6.3,14.1,14.1,14.1s14.1-6.3,14.1-14.1c0-2.6,2.1-4.7,4.7-4.7s4.7,2.1,4.7,4.7v9.4
			c0,12.9-5.7,24.7-15.8,32.8H53.3c-10-8.1-15.8-19.9-15.8-32.8V14.1z M42.2,65.6h7.9h59.2h7.9c2.6,0,4.7,2.1,4.7,4.7
			s-2.1,4.7-4.7,4.7h0h-75h0c-2.6,0-4.7-2.1-4.7-4.7S39.6,65.6,42.2,65.6z M9.4,145.3c0-25.1,13.5-48.4,35.3-60.9h70.1
			c8.2,4.7,15.4,11.2,21.1,18.8h-14c-12.9,0-23.4,10.5-23.4,23.4v4.7H46.9v9.4c7.8,0,14.1,6.3,14.1,14.1V213
			C30.7,204.7,9.4,177.1,9.4,145.3z M70.3,239.1v-84.4c0-5.3-1.8-10.1-4.8-14.1h32.9v98.4c0,7.8-6.3,14.1-14.1,14.1
			S70.3,246.8,70.3,239.1z M103,253.1c3-3.9,4.8-8.8,4.8-14.1V126.6c0-7.8,6.3-14.1,14.1-14.1s14.1,6.3,14.1,14.1v126.6H103z
			 M281.3,267.2c0,7.8-6.3,14.1-14.1,14.1h-89.1c2.9-3.9,4.7-8.8,4.7-14.1v-4.7h98.4L281.3,267.2L281.3,267.2z"/>
		<rect x="154.7" y="210.9" class="st0" width="60.9" height="9.4"/>
		<rect x="164.1" y="229.7" class="st0" width="51.6" height="9.4"/>
		<path class="st1" d="M276.6,93.8c-7.8,0-14.1,6.3-14.1,14.1c0,2.7,0.8,5.2,2.1,7.3l-25.7,40.4c-1.4-0.5-3-0.8-4.6-0.8
			c-2.8,0-5.3,0.8-7.5,2.2l-12-7.2c0.5-1.4,0.8-2.8,0.8-4.4c0-7.8-6.3-14.1-14.1-14.1s-14.1,6.3-14.1,14.1c0,2.4,0.7,4.6,1.7,6.6
			l-15,18c-1.7-0.7-3.5-1.1-5.5-1.1c-7.8,0-14.1,6.3-14.1,14.1s6.3,14.1,14.1,14.1s14.1-6.3,14.1-14.1c0-2.4-0.7-4.6-1.7-6.6l15-18
			c1.7,0.7,3.5,1.1,5.5,1.1c2.8,0,5.3-0.8,7.5-2.2l12,7.2c-0.5,1.4-0.8,2.8-0.8,4.4c0,7.8,6.3,14.1,14.1,14.1s14.1-6.3,14.1-14.1
			c0-2.7-0.8-5.2-2.1-7.3l25.7-40.4c1.4,0.5,3,0.8,4.6,0.8c7.8,0,14.1-6.3,14.1-14.1S284.3,93.8,276.6,93.8z M168.8,187.5
			c-2.6,0-4.7-2.1-4.7-4.7s2.1-4.7,4.7-4.7s4.7,2.1,4.7,4.7S171.3,187.5,168.8,187.5z M196.9,145.3c0-2.6,2.1-4.7,4.7-4.7
			s4.7,2.1,4.7,4.7s-2.1,4.7-4.7,4.7S196.9,147.9,196.9,145.3z M234.4,173.4c-2.6,0-4.7-2.1-4.7-4.7s2.1-4.7,4.7-4.7
			s4.7,2.1,4.7,4.7S237,173.4,234.4,173.4z M276.6,112.5c-2.6,0-4.7-2.1-4.7-4.7s2.1-4.7,4.7-4.7s4.7,2.1,4.7,4.7
			S279.1,112.5,276.6,112.5z"/>
	</g>
</g>
</svg>
