<svg xmlns="http://www.w3.org/2000/svg" width="64.565" height="57.759" viewBox="0 0 64.565 57.759">
  <g id="Group_325" data-name="Group 325" opacity="0.1">
    <path id="Path_970" data-name="Path 970" d="M959.974,449.169c-2.581,0-4.973.01-7.366,0-4.484-.022-7.028-2.575-7.031-7.043q0-7,0-14a6.309,6.309,0,0,1,6.6-6.7q8.381-.071,16.763,0c4.059.031,6.647,2.706,6.645,6.785,0,7.1.042,14.206-.07,21.308a41.007,41.007,0,0,1-2.195,12.863c-3.374,9.721-10.4,14.928-20.391,16.424-1.078.161-2.172.219-3.259.326-1.026.1-1.651-.327-1.655-1.39q-.026-6.115,0-12.23a1.306,1.306,0,0,1,1.313-1.4c.623-.08,1.243-.2,1.856-.342a9.854,9.854,0,0,0,6.991-5.644A20.583,20.583,0,0,0,959.974,449.169Zm-9.4,27.322a5.014,5.014,0,0,0,.619,0c1.037-.157,2.079-.286,3.106-.492,6.958-1.4,12.295-4.992,15.442-11.5a30.479,30.479,0,0,0,3.023-12.011c.243-5.621.221-11.254.288-16.883.031-2.605.036-5.212-.007-7.816a3.429,3.429,0,0,0-3.513-3.628c0,2.809-.006,5.621,0,8.433,0,.941-.053,1.9-1.291,1.876s-1.244-1-1.241-1.927c.008-2.059,0-4.118,0-6.178v-2.378c-5.232,0-10.271-.063-15.307.028-2.244.04-3.585,1.668-3.594,4.033-.019,4.664-.008,9.329,0,13.994,0,3.207,1.381,4.588,4.6,4.6q4.033.014,8.065,0c1.077,0,1.792.332,1.785,1.572a27.2,27.2,0,0,1-1.615,9.887,12.515,12.515,0,0,1-9.336,8.176c-.353.079-.694.212-1.031.317Z" transform="translate(-911.026 -421.384)" fill="#dd131a"/>
    <path id="Path_971" data-name="Path 971" d="M823.034,449.152c-2.786,0-5.338.033-7.889-.008a6.287,6.287,0,0,1-6.467-5.075,7.449,7.449,0,0,1-.14-1.625q-.015-7.188,0-14.376a6.29,6.29,0,0,1,6.521-6.654q8.509-.085,17.018,0a6.283,6.283,0,0,1,6.469,6.579q.013,1.765,0,3.531c-.008.824-.359,1.41-1.252,1.413s-1.253-.577-1.262-1.4c-.014-1.219.014-2.438-.012-3.657a3.66,3.66,0,0,0-3.741-3.907q-8.759-.1-17.52.006a3.608,3.608,0,0,0-3.68,3.83q-.051,7.44,0,14.881a3.735,3.735,0,0,0,4.006,3.915c2.814.056,5.631.007,8.446.021,1.7.008,2.063.331,1.963,1.988a47.667,47.667,0,0,1-.562,5.757c-1.177,6.4-4.523,10.858-11.349,12.111v10.034c7.8-.774,14.336-3.562,18.383-10.65,2.891-5.062,3.75-10.645,4-16.356.1-2.14.058-4.287.05-6.431,0-.936.186-1.793,1.278-1.787s1.252.873,1.264,1.8c.078,6.067-.079,12.112-1.85,17.981-3.264,10.816-11.343,17.145-22.852,17.953-2.845.2-2.9.15-2.9-2.727,0-3.447.008-6.894,0-10.341,0-.982.2-1.736,1.373-1.872,7.21-.839,9.426-5.83,10.279-10.821C822.818,451.994,822.877,450.693,823.034,449.152Z" transform="translate(-808.527 -421.369)" fill="#dd131a"/>
    <path id="Path_972" data-name="Path 972" d="M920.781,480.319c-.794.574-1.315,1.23-1.7,1.157a1.888,1.888,0,0,1-1.238-1.211A1,1,0,0,1,919.1,479.1C919.6,479.208,920.01,479.739,920.781,480.319Z" transform="translate(-890.273 -464.53)" fill="#dd131a"/>
    <path id="Path_973" data-name="Path 973" d="M1029.918,482.242c.49-.324.994-.916,1.468-.894.421.02.81.721,1.213,1.122-.424.427-.8,1.1-1.289,1.2-.382.075-.906-.571-1.367-.9C1029.934,482.6,1029.926,482.419,1029.918,482.242Z" transform="translate(-974.109 -466.228)" fill="#dd131a"/>
  </g>
</svg>
